PathFileType	4	(X/Y/Z)	 s09c0401.trc
DataRate	CameraRate	NumFrames	NumMarkers	Units	OrigDataRate	OrigDataStartFrame	OrigNumFrames
200	200	5	50	mm	200	251	2000
Frame#	Time	racr			lacr			c7			jug			rlel			rdr			llel			ldr			s2			lic			ric			lasi			rasi			rpsi			lpsi			rgt			lgt			rth1			rth2			rth3			rth4			rlfc			rmfc			rsh1			rsh2			rsh3			rsh4			rlmal			rmmal			rcal			rtoe			rmt5			lth1			lth2			lth4			lth3			llfc			lmfc			llmal			lmmal			lcal			lmt5			lsh1			lsh2			lsh3			lsh4			ltoe			SBIKE			LBIKE			RBIKE			
		X1	Y1	Z1	X2	Y2	Z2	X3	Y3	Z3	X4	Y4	Z4	X5	Y5	Z5	X6	Y6	Z6	X7	Y7	Z7	X8	Y8	Z8	X9	Y9	Z9	X10	Y10	Z10	X11	Y11	Z11	X12	Y12	Z12	X13	Y13	Z13	X14	Y14	Z14	X15	Y15	Z15	X16	Y16	Z16	X17	Y17	Z17	X18	Y18	Z18	X19	Y19	Z19	X20	Y20	Z20	X21	Y21	Z21	X22	Y22	Z22	X23	Y23	Z23	X24	Y24	Z24	X25	Y25	Z25	X26	Y26	Z26	X27	Y27	Z27	X28	Y28	Z28	X29	Y29	Z29	X30	Y30	Z30	X31	Y31	Z31	X32	Y32	Z32	X33	Y33	Z33	X34	Y34	Z34	X35	Y35	Z35	X36	Y36	Z36	X37	Y37	Z37	X38	Y38	Z38	X39	Y39	Z39	X40	Y40	Z40	X41	Y41	Z41	X42	Y42	Z42	X43	Y43	Z43	X44	Y44	Z44	X45	Y45	Z45	X46	Y46	Z46	X47	Y47	Z47	X48	Y48	Z48	X49	Y49	Z49	X50	Y50	Z50	
251	1.2550	575.336643	1288.255772	-113.396229	575.502968	1266.079022	-414.652906	NaN	NaN	NaN	525.205046	1165.982344	-255.948490	506.473994	1072.585647	29.710085	680.088662	908.818731	-35.474977	447.405443	1029.343151	-525.252354	651.716682	904.396414	-457.899493	49.212331	1185.100484	-229.757383	176.885455	1148.878829	-380.266245	203.378628	1150.043265	-97.385337	200.497860	1080.905551	-362.217521	228.535230	1082.833720	-115.461420	91.301555	1207.479170	-173.896721	83.349363	1213.751279	-284.405673	150.566317	1016.661708	-43.818142	117.422596	1038.335669	-425.980326	232.103499	904.362369	-54.851307	294.438292	845.358457	-69.654951	317.354961	759.465563	-79.600117	317.674962	861.077854	-93.148376	345.710587	664.197973	-114.976433	320.615086	653.096129	-210.987142	261.995653	603.501874	-81.810057	216.533090	527.105328	-93.525094	138.910890	484.995906	-90.094941	233.861668	512.359228	-126.642969	63.896949	418.768668	-88.095462	69.643801	426.541418	-168.310778	-26.284950	416.081331	-126.826374	214.002973	306.105563	-123.271392	130.790187	323.094568	-59.820575	218.142472	943.481034	-424.303910	297.133923	911.663222	-418.402691	319.298388	938.926952	-403.680181	352.054953	839.864011	-414.929041	414.222690	761.393112	-398.181971	433.041852	751.509404	-299.497725	352.971339	402.275080	-405.166104	368.238290	412.492923	-334.415926	284.177355	361.541138	-368.948922	452.713913	325.297589	-433.755041	394.239896	664.338720	-420.026265	404.246447	578.148805	-412.009737	368.383998	496.803268	-410.911715	429.549570	576.918231	-381.593525	544.094597	346.250053	-365.844452	-65.301013	853.530481	-238.907253	20.793297	84.771444	-441.914467	21.072544	84.061090	-43.828467	
252	1.2600	575.683564	1288.078459	-113.411309	575.753524	1265.923421	-414.740508	NaN	NaN	NaN	525.464691	1165.863033	-256.003916	506.577536	1072.371525	29.701423	680.121561	908.808244	-35.480711	447.457394	1029.231059	-525.262597	651.827345	904.344921	-457.697688	49.496448	1185.157700	-229.739150	177.024801	1148.823431	-380.155536	203.674379	1150.020290	-97.403577	200.742998	1080.882269	-362.214506	228.768323	1082.828854	-115.489699	91.622815	1207.530046	-173.909382	83.626256	1213.808215	-284.438145	150.779298	1016.738397	-43.591896	117.643211	1038.430540	-426.004014	232.299119	904.428298	-54.855467	294.603589	845.364582	-69.700769	317.511378	759.495127	-79.653157	317.837424	861.086421	-93.167219	345.830506	664.179747	-115.014329	320.730042	653.089274	-211.032435	262.092534	603.516647	-81.846254	216.637651	527.134493	-93.526467	138.959405	485.043698	-90.095730	233.942380	512.379250	-126.662545	63.948390	418.845117	-88.112908	69.694728	426.578840	-168.320246	-26.242808	416.196791	-126.819651	214.003681	306.125099	-123.259986	130.799371	323.148720	-59.818339	218.284754	943.552254	-424.340624	297.279123	911.702569	-418.385690	319.465515	938.957869	-403.644611	352.169877	839.892029	-414.938470	414.318122	761.359754	-398.200751	433.149812	751.440739	-299.541804	353.016317	402.253555	-405.152172	368.273581	412.462460	-334.427411	284.196246	361.553890	-368.953325	452.718720	325.244933	-433.750501	394.325076	664.308928	-420.021799	404.316043	578.142004	-412.022621	368.432289	496.784496	-410.909575	429.636567	576.888269	-381.594098	544.115302	346.183696	-365.863407	-65.296739	853.524487	-238.907331	20.784793	84.778370	-441.908673	21.072509	84.072365	-43.824586	
253	1.2650	576.005495	1287.956229	-113.435061	575.995240	1265.813917	-414.830737	NaN	NaN	NaN	525.758237	1165.736883	-256.034381	506.710727	1072.373328	29.771504	680.139979	908.809540	-35.469140	447.552475	1029.126472	-525.251095	651.967165	904.274122	-457.372232	49.753666	1185.227769	-229.710464	177.164825	1148.763625	-380.092816	203.989318	1150.021207	-97.429969	200.970832	1080.816675	-362.190964	229.019876	1082.812590	-115.478059	91.904203	1207.579358	-173.891193	83.892490	1213.889993	-284.440535	150.966730	1016.781407	-43.588980	117.856669	1038.537563	-426.013392	232.487441	904.469770	-54.878116	294.747902	845.387963	-69.747075	317.633849	759.498471	-79.690485	317.998288	861.067898	-93.194289	345.931512	664.184154	-115.063857	320.796445	653.100483	-211.103745	262.182084	603.528256	-81.881405	216.684620	527.162420	-93.571020	139.022271	485.101684	-90.101635	233.988017	512.400684	-126.698895	63.989451	418.903998	-88.140389	69.738979	426.627773	-168.307500	-26.199373	416.288581	-126.825055	214.026859	306.129685	-123.277994	130.810678	323.215223	-59.828860	218.433858	943.622678	-424.332040	297.431709	911.752405	-418.373957	319.609030	939.025268	-403.639318	352.309960	839.920906	-414.934452	414.451107	761.346691	-398.220955	433.258152	751.439437	-299.529981	353.043867	402.246850	-405.171135	368.328257	412.454461	-334.405377	284.228870	361.562333	-368.966321	452.741530	325.182294	-433.770598	394.405847	664.289373	-420.030733	404.382993	578.113494	-412.017215	368.499314	496.777394	-410.919314	429.694733	576.865314	-381.604148	544.120603	346.108608	-365.874463	-65.301754	853.530218	-238.907832	20.791659	84.766666	-441.910038	21.057750	84.077171	-43.836033	
254	1.2700	576.331825	1287.830716	-113.473730	576.276123	1265.728973	-414.885964	NaN	NaN	NaN	526.072224	1165.629005	-256.112448	506.827601	1072.365233	29.840079	680.186292	908.825625	-35.433224	447.729660	1029.013208	-525.258785	652.096549	904.181166	-456.990302	50.010860	1185.311434	-229.704193	177.452719	1148.775493	-380.056198	204.262741	1150.016396	-97.447774	201.181313	1080.787732	-362.178560	229.256676	1082.792773	-115.467795	92.162055	1207.636514	-173.871072	84.203520	1213.880058	-284.457613	151.158142	1016.820764	-43.623713	118.072993	1038.629332	-426.021250	232.668486	904.490790	-54.867372	294.908109	845.365995	-69.824309	317.758467	759.498690	-79.735519	318.150029	861.071585	-93.208856	346.056271	664.176613	-115.109634	320.875694	653.104743	-211.150502	262.254025	603.541960	-81.907398	216.737538	527.204710	-93.610864	139.076212	485.150041	-90.126655	234.040848	512.435619	-126.722173	64.021520	418.950156	-88.171305	69.770559	426.667357	-168.331926	-26.156101	416.390847	-126.830411	214.005254	306.157593	-123.269701	130.814334	323.255955	-59.825266	218.614391	943.698091	-424.332561	297.567344	911.806526	-418.355328	319.766229	939.068345	-403.595920	352.440843	839.952616	-414.946676	414.556387	761.331419	-398.169149	433.353466	751.452787	-299.522083	353.076932	402.213340	-405.145520	368.323285	412.446347	-334.414939	284.249257	361.579062	-368.962443	452.748358	325.128843	-433.770633	394.508903	664.264034	-420.014588	404.476552	578.100509	-412.002207	368.552744	496.757863	-410.917045	429.770760	576.843219	-381.611433	544.143528	346.057222	-365.885428	-65.294613	853.520244	-238.895460	20.761105	84.666982	-442.002390	21.067021	84.060064	-43.819890	
255	1.2750	576.683352	1287.694241	-113.610953	576.609256	1265.670158	-414.954101	NaN	NaN	NaN	526.401681	1165.459925	-256.104847	506.952544	1072.384464	29.919490	680.237108	908.829646	-35.392838	447.988733	1028.898725	-525.216034	652.199763	904.073943	-456.506691	50.269327	1185.389247	-229.673589	177.760472	1148.744648	-380.040420	204.543142	1150.021466	-97.493422	201.376972	1080.765881	-362.179843	229.489276	1082.765493	-115.475712	92.442725	1207.752813	-173.875029	84.484815	1213.995534	-284.466497	151.346433	1016.868260	-43.645388	118.255786	1038.706396	-426.016653	232.846979	904.502469	-54.862647	295.046534	845.392576	-69.878411	317.896659	759.469272	-79.771934	318.338101	861.054368	-93.257359	346.157585	664.171738	-115.146968	320.965148	653.099572	-211.197366	262.354209	603.553586	-81.959153	216.822754	527.212565	-93.641669	139.138153	485.187016	-90.154854	234.106343	512.459433	-126.747373	64.079913	419.024612	-88.180965	69.900979	426.758263	-168.352501	-26.120251	416.488246	-126.860654	214.030633	306.166868	-123.278573	130.820374	323.307060	-59.832369	218.771128	943.750381	-424.333809	297.747874	911.851016	-418.311004	319.910479	939.110060	-403.572698	352.605807	839.998723	-414.908407	414.716952	761.315212	-398.239832	433.493528	751.434378	-299.489666	353.118321	402.207221	-405.152713	368.411003	412.446023	-334.403375	284.277859	361.579001	-368.962341	452.777427	325.072389	-433.758176	394.597451	664.259319	-420.025159	404.543699	578.101667	-412.019545	368.617558	496.761476	-410.899528	429.851615	576.813235	-381.589600	544.177140	345.977921	-365.892944	-65.289809	853.535168	-238.910649	20.770868	84.672435	-441.999421	21.064276	84.072529	-43.836592	
